<mxfile host="Electron" modified="2024-06-27T10:12:35.309Z" agent="Mozilla/5.0 (Windows NT 10.0; Win64; x64) AppleWebKit/537.36 (KHTML, like Gecko) draw.io/24.0.4 Chrome/120.0.6099.109 Electron/28.1.0 Safari/537.36" etag="xYfWfEBQdqYneEFNQt4Y" version="24.0.4" type="device">
  <diagram name="Page-1" id="J7JWCEi4_21hs-v4LInZ">
    <mxGraphModel dx="1036" dy="614" grid="1" gridSize="10" guides="1" tooltips="1" connect="1" arrows="1" fold="1" page="1" pageScale="1" pageWidth="850" pageHeight="1100" math="0" shadow="0">
      <root>
        <mxCell id="0" />
        <mxCell id="1" parent="0" />
        <mxCell id="I1TmpIELdwfT0sR5nAJM-3" value="" style="verticalLabelPosition=bottom;verticalAlign=top;html=1;strokeWidth=2;shape=mxgraph.arrows2.arrow;dy=0.6;dx=40;notch=0;" vertex="1" parent="1">
          <mxGeometry x="120" y="250" width="290" height="20" as="geometry" />
        </mxCell>
        <mxCell id="I1TmpIELdwfT0sR5nAJM-8" value="Place Oder" style="whiteSpace=wrap;html=1;align=center;" vertex="1" parent="1">
          <mxGeometry x="190" y="240" width="100" height="20" as="geometry" />
        </mxCell>
        <mxCell id="I1TmpIELdwfT0sR5nAJM-9" value="Manage Orders" style="ellipse;whiteSpace=wrap;html=1;align=center;" vertex="1" parent="1">
          <mxGeometry x="420" y="240" width="150" height="40" as="geometry" />
        </mxCell>
        <mxCell id="I1TmpIELdwfT0sR5nAJM-10" value="View Oders" style="ellipse;whiteSpace=wrap;html=1;align=center;" vertex="1" parent="1">
          <mxGeometry x="750" y="70" width="100" height="40" as="geometry" />
        </mxCell>
        <mxCell id="I1TmpIELdwfT0sR5nAJM-11" value="Delete Oders" style="ellipse;whiteSpace=wrap;html=1;align=center;" vertex="1" parent="1">
          <mxGeometry x="750" y="120" width="100" height="40" as="geometry" />
        </mxCell>
        <mxCell id="I1TmpIELdwfT0sR5nAJM-12" value="Edit Oders" style="ellipse;whiteSpace=wrap;html=1;align=center;" vertex="1" parent="1">
          <mxGeometry x="750" y="180" width="100" height="40" as="geometry" />
        </mxCell>
        <mxCell id="I1TmpIELdwfT0sR5nAJM-13" value="Add to Cart" style="ellipse;whiteSpace=wrap;html=1;align=center;" vertex="1" parent="1">
          <mxGeometry x="750" y="230" width="100" height="40" as="geometry" />
        </mxCell>
        <mxCell id="I1TmpIELdwfT0sR5nAJM-14" value="Generate Receipt" style="ellipse;whiteSpace=wrap;html=1;align=center;" vertex="1" parent="1">
          <mxGeometry x="750" y="20" width="100" height="40" as="geometry" />
        </mxCell>
        <mxCell id="I1TmpIELdwfT0sR5nAJM-16" value="" style="endArrow=classic;html=1;rounded=0;entryX=0;entryY=0.5;entryDx=0;entryDy=0;exitX=1;exitY=0;exitDx=0;exitDy=0;" edge="1" parent="1" source="I1TmpIELdwfT0sR5nAJM-9" target="I1TmpIELdwfT0sR5nAJM-10">
          <mxGeometry width="50" height="50" relative="1" as="geometry">
            <mxPoint x="400" y="340" as="sourcePoint" />
            <mxPoint x="450" y="290" as="targetPoint" />
          </mxGeometry>
        </mxCell>
        <mxCell id="I1TmpIELdwfT0sR5nAJM-17" value="" style="endArrow=classic;html=1;rounded=0;entryX=0;entryY=0.5;entryDx=0;entryDy=0;exitX=0.672;exitY=-0.045;exitDx=0;exitDy=0;exitPerimeter=0;" edge="1" parent="1" target="I1TmpIELdwfT0sR5nAJM-11">
          <mxGeometry width="50" height="50" relative="1" as="geometry">
            <mxPoint x="560" y="250" as="sourcePoint" />
            <mxPoint x="779" y="82" as="targetPoint" />
          </mxGeometry>
        </mxCell>
        <mxCell id="I1TmpIELdwfT0sR5nAJM-18" value="" style="endArrow=classic;html=1;rounded=0;entryX=0;entryY=0.5;entryDx=0;entryDy=0;exitX=1;exitY=0.5;exitDx=0;exitDy=0;" edge="1" parent="1" source="I1TmpIELdwfT0sR5nAJM-9" target="I1TmpIELdwfT0sR5nAJM-12">
          <mxGeometry width="50" height="50" relative="1" as="geometry">
            <mxPoint x="560" y="270" as="sourcePoint" />
            <mxPoint x="779" y="102" as="targetPoint" />
          </mxGeometry>
        </mxCell>
        <mxCell id="I1TmpIELdwfT0sR5nAJM-19" value="" style="endArrow=classic;html=1;rounded=0;entryX=0;entryY=0.5;entryDx=0;entryDy=0;" edge="1" parent="1" target="I1TmpIELdwfT0sR5nAJM-13">
          <mxGeometry width="50" height="50" relative="1" as="geometry">
            <mxPoint x="560" y="270" as="sourcePoint" />
            <mxPoint x="749" y="110" as="targetPoint" />
          </mxGeometry>
        </mxCell>
        <mxCell id="I1TmpIELdwfT0sR5nAJM-20" value="" style="endArrow=classic;html=1;rounded=0;entryX=0;entryY=0.5;entryDx=0;entryDy=0;" edge="1" parent="1" source="I1TmpIELdwfT0sR5nAJM-9" target="I1TmpIELdwfT0sR5nAJM-14">
          <mxGeometry width="50" height="50" relative="1" as="geometry">
            <mxPoint x="400" y="340" as="sourcePoint" />
            <mxPoint x="450" y="290" as="targetPoint" />
          </mxGeometry>
        </mxCell>
        <mxCell id="I1TmpIELdwfT0sR5nAJM-29" value="" style="shape=actor;whiteSpace=wrap;html=1;" vertex="1" parent="1">
          <mxGeometry x="50" y="190" width="40" height="60" as="geometry" />
        </mxCell>
        <mxCell id="I1TmpIELdwfT0sR5nAJM-30" value="" style="shape=delay;whiteSpace=wrap;html=1;rotation=90;" vertex="1" parent="1">
          <mxGeometry x="50" y="250" width="40" height="40" as="geometry" />
        </mxCell>
        <mxCell id="I1TmpIELdwfT0sR5nAJM-31" value="" style="verticalLabelPosition=bottom;verticalAlign=top;html=1;shape=mxgraph.basic.smiley" vertex="1" parent="1">
          <mxGeometry x="52.5" y="180" width="35" height="40" as="geometry" />
        </mxCell>
        <mxCell id="I1TmpIELdwfT0sR5nAJM-41" value="" style="strokeWidth=2;html=1;shape=mxgraph.flowchart.terminator;whiteSpace=wrap;rotation=90;" vertex="1" parent="1">
          <mxGeometry x="25.63" y="502.38" width="93.75" height="42.5" as="geometry" />
        </mxCell>
        <mxCell id="I1TmpIELdwfT0sR5nAJM-42" value="" style="verticalLabelPosition=bottom;verticalAlign=top;html=1;shape=mxgraph.basic.smiley" vertex="1" parent="1">
          <mxGeometry x="52.5" y="450" width="40" height="45" as="geometry" />
        </mxCell>
        <mxCell id="I1TmpIELdwfT0sR5nAJM-45" value="" style="verticalLabelPosition=bottom;verticalAlign=top;html=1;strokeWidth=2;shape=mxgraph.arrows2.arrow;dy=0.6;dx=40;notch=0;" vertex="1" parent="1">
          <mxGeometry x="130" y="537.5" width="290" height="22.5" as="geometry" />
        </mxCell>
        <mxCell id="I1TmpIELdwfT0sR5nAJM-46" value="Manage Customers" style="ellipse;whiteSpace=wrap;html=1;align=center;" vertex="1" parent="1">
          <mxGeometry x="425" y="530" width="150" height="40" as="geometry" />
        </mxCell>
        <mxCell id="I1TmpIELdwfT0sR5nAJM-47" value="Edit Customer" style="ellipse;whiteSpace=wrap;html=1;align=center;" vertex="1" parent="1">
          <mxGeometry x="745.92" y="310" width="100" height="40" as="geometry" />
        </mxCell>
        <mxCell id="I1TmpIELdwfT0sR5nAJM-48" value="Add Customer" style="ellipse;whiteSpace=wrap;html=1;align=center;" vertex="1" parent="1">
          <mxGeometry x="745.92" y="372.9" width="100" height="40" as="geometry" />
        </mxCell>
        <mxCell id="I1TmpIELdwfT0sR5nAJM-49" value="View Customer Oders" style="ellipse;whiteSpace=wrap;html=1;align=center;" vertex="1" parent="1">
          <mxGeometry x="745.92" y="430" width="100" height="40" as="geometry" />
        </mxCell>
        <mxCell id="I1TmpIELdwfT0sR5nAJM-50" value="Delete Customer" style="ellipse;whiteSpace=wrap;html=1;align=center;" vertex="1" parent="1">
          <mxGeometry x="750" y="490" width="100" height="40" as="geometry" />
        </mxCell>
        <mxCell id="I1TmpIELdwfT0sR5nAJM-52" value="" style="endArrow=open;endFill=1;endSize=12;html=1;rounded=0;entryX=-0.008;entryY=0.775;entryDx=0;entryDy=0;entryPerimeter=0;exitX=0.747;exitY=0.084;exitDx=0;exitDy=0;exitPerimeter=0;" edge="1" parent="1" source="I1TmpIELdwfT0sR5nAJM-46" target="I1TmpIELdwfT0sR5nAJM-47">
          <mxGeometry width="160" relative="1" as="geometry">
            <mxPoint x="340" y="640" as="sourcePoint" />
            <mxPoint x="500" y="640" as="targetPoint" />
          </mxGeometry>
        </mxCell>
        <mxCell id="I1TmpIELdwfT0sR5nAJM-53" value="" style="endArrow=open;endFill=1;endSize=12;html=1;rounded=0;entryX=0;entryY=0.5;entryDx=0;entryDy=0;exitX=1;exitY=0.5;exitDx=0;exitDy=0;" edge="1" parent="1" source="I1TmpIELdwfT0sR5nAJM-46" target="I1TmpIELdwfT0sR5nAJM-50">
          <mxGeometry width="160" relative="1" as="geometry">
            <mxPoint x="340" y="640" as="sourcePoint" />
            <mxPoint x="500" y="640" as="targetPoint" />
          </mxGeometry>
        </mxCell>
        <mxCell id="I1TmpIELdwfT0sR5nAJM-54" value="" style="endArrow=open;endFill=1;endSize=12;html=1;rounded=0;entryX=0.024;entryY=0.755;entryDx=0;entryDy=0;entryPerimeter=0;exitX=1;exitY=0;exitDx=0;exitDy=0;" edge="1" parent="1" source="I1TmpIELdwfT0sR5nAJM-46" target="I1TmpIELdwfT0sR5nAJM-48">
          <mxGeometry width="160" relative="1" as="geometry">
            <mxPoint x="340" y="640" as="sourcePoint" />
            <mxPoint x="500" y="640" as="targetPoint" />
          </mxGeometry>
        </mxCell>
        <mxCell id="I1TmpIELdwfT0sR5nAJM-55" value="" style="endArrow=open;endFill=1;endSize=12;html=1;rounded=0;entryX=0;entryY=0.5;entryDx=0;entryDy=0;exitX=0.98;exitY=0.305;exitDx=0;exitDy=0;exitPerimeter=0;" edge="1" parent="1" source="I1TmpIELdwfT0sR5nAJM-46" target="I1TmpIELdwfT0sR5nAJM-49">
          <mxGeometry width="160" relative="1" as="geometry">
            <mxPoint x="340" y="640" as="sourcePoint" />
            <mxPoint x="500" y="640" as="targetPoint" />
          </mxGeometry>
        </mxCell>
        <mxCell id="I1TmpIELdwfT0sR5nAJM-56" value="Manage Customers" style="whiteSpace=wrap;html=1;align=center;" vertex="1" parent="1">
          <mxGeometry x="202.55" y="530" width="130" height="20" as="geometry" />
        </mxCell>
        <mxCell id="I1TmpIELdwfT0sR5nAJM-57" value="" style="verticalLabelPosition=bottom;verticalAlign=top;html=1;strokeWidth=2;shape=mxgraph.arrows2.arrow;dy=0.6;dx=40;notch=0;rotation=-35;" vertex="1" parent="1">
          <mxGeometry x="80.88" y="393.83" width="428.59" height="26.83" as="geometry" />
        </mxCell>
        <mxCell id="I1TmpIELdwfT0sR5nAJM-58" value="View / Edit Oders" style="rounded=1;arcSize=10;whiteSpace=wrap;html=1;align=center;rotation=-35;" vertex="1" parent="1">
          <mxGeometry x="232.55" y="391.03" width="100" height="21.87" as="geometry" />
        </mxCell>
        <mxCell id="I1TmpIELdwfT0sR5nAJM-71" value="" style="strokeWidth=2;html=1;shape=mxgraph.flowchart.terminator;whiteSpace=wrap;rotation=75;" vertex="1" parent="1">
          <mxGeometry x="52.50011513630238" y="579.9953212766845" width="71.83" height="10" as="geometry" />
        </mxCell>
        <mxCell id="I1TmpIELdwfT0sR5nAJM-72" value="" style="strokeWidth=2;html=1;shape=mxgraph.flowchart.terminator;whiteSpace=wrap;rotation=105;" vertex="1" parent="1">
          <mxGeometry x="15.670115136302378" y="579.9953212766845" width="71.83" height="10" as="geometry" />
        </mxCell>
        <mxCell id="I1TmpIELdwfT0sR5nAJM-73" value="Staff" style="rounded=1;arcSize=10;whiteSpace=wrap;html=1;align=center;" vertex="1" parent="1">
          <mxGeometry x="15.669999999999984" y="530" width="100" height="40" as="geometry" />
        </mxCell>
        <mxCell id="I1TmpIELdwfT0sR5nAJM-74" value="" style="strokeWidth=2;html=1;shape=mxgraph.flowchart.terminator;whiteSpace=wrap;rotation=75;" vertex="1" parent="1">
          <mxGeometry x="52.50011513630238" y="309.99532127668454" width="71.83" height="10" as="geometry" />
        </mxCell>
        <mxCell id="I1TmpIELdwfT0sR5nAJM-75" value="" style="strokeWidth=2;html=1;shape=mxgraph.flowchart.terminator;whiteSpace=wrap;rotation=105;" vertex="1" parent="1">
          <mxGeometry x="15.670115136302378" y="309.99532127668454" width="71.83" height="10" as="geometry" />
        </mxCell>
        <mxCell id="I1TmpIELdwfT0sR5nAJM-78" value="Customer" style="rounded=1;arcSize=10;whiteSpace=wrap;html=1;align=center;" vertex="1" parent="1">
          <mxGeometry x="15.670000000000016" y="260" width="100" height="40" as="geometry" />
        </mxCell>
        <mxCell id="I1TmpIELdwfT0sR5nAJM-82" style="edgeStyle=orthogonalEdgeStyle;rounded=0;orthogonalLoop=1;jettySize=auto;html=1;exitX=0.5;exitY=1;exitDx=0;exitDy=0;" edge="1" parent="1">
          <mxGeometry relative="1" as="geometry">
            <mxPoint x="65.67000000000007" y="850" as="sourcePoint" />
            <mxPoint x="65.67000000000007" y="850" as="targetPoint" />
          </mxGeometry>
        </mxCell>
        <mxCell id="I1TmpIELdwfT0sR5nAJM-83" value="" style="verticalLabelPosition=bottom;verticalAlign=top;html=1;strokeWidth=2;shape=mxgraph.arrows2.arrow;dy=0.6;dx=40;notch=0;rotation=35;" vertex="1" parent="1">
          <mxGeometry x="83.41" y="671.95" width="395.97" height="26.73" as="geometry" />
        </mxCell>
        <mxCell id="I1TmpIELdwfT0sR5nAJM-84" value="Manage Orders" style="ellipse;whiteSpace=wrap;html=1;align=center;" vertex="1" parent="1">
          <mxGeometry x="410" y="800" width="170" height="40" as="geometry" />
        </mxCell>
        <mxCell id="I1TmpIELdwfT0sR5nAJM-87" value="Update Store Items" style="rounded=1;arcSize=10;whiteSpace=wrap;html=1;align=center;rotation=35;" vertex="1" parent="1">
          <mxGeometry x="200" y="670" width="113.7" height="18.05" as="geometry" />
        </mxCell>
        <mxCell id="I1TmpIELdwfT0sR5nAJM-88" value="Delete Customer" style="ellipse;whiteSpace=wrap;html=1;align=center;" vertex="1" parent="1">
          <mxGeometry x="745.92" y="590" width="100" height="40" as="geometry" />
        </mxCell>
        <mxCell id="I1TmpIELdwfT0sR5nAJM-89" value="Delete Customer" style="ellipse;whiteSpace=wrap;html=1;align=center;" vertex="1" parent="1">
          <mxGeometry x="745.92" y="648.05" width="100" height="40" as="geometry" />
        </mxCell>
        <mxCell id="I1TmpIELdwfT0sR5nAJM-138" value="Delete Customer" style="ellipse;whiteSpace=wrap;html=1;align=center;" vertex="1" parent="1">
          <mxGeometry x="740" y="710" width="100" height="40" as="geometry" />
        </mxCell>
        <mxCell id="I1TmpIELdwfT0sR5nAJM-139" value="Delete Customer" style="ellipse;whiteSpace=wrap;html=1;align=center;" vertex="1" parent="1">
          <mxGeometry x="740" y="770" width="100" height="40" as="geometry" />
        </mxCell>
        <mxCell id="I1TmpIELdwfT0sR5nAJM-140" value="Delete Customer" style="ellipse;whiteSpace=wrap;html=1;align=center;" vertex="1" parent="1">
          <mxGeometry x="740" y="820" width="100" height="40" as="geometry" />
        </mxCell>
        <mxCell id="I1TmpIELdwfT0sR5nAJM-141" value="Delete Customer" style="ellipse;whiteSpace=wrap;html=1;align=center;" vertex="1" parent="1">
          <mxGeometry x="745.92" y="890" width="100" height="40" as="geometry" />
        </mxCell>
        <mxCell id="I1TmpIELdwfT0sR5nAJM-142" value="Delete Customer" style="ellipse;whiteSpace=wrap;html=1;align=center;" vertex="1" parent="1">
          <mxGeometry x="745.92" y="940" width="100" height="40" as="geometry" />
        </mxCell>
        <mxCell id="I1TmpIELdwfT0sR5nAJM-143" value="Delete Customer" style="ellipse;whiteSpace=wrap;html=1;align=center;" vertex="1" parent="1">
          <mxGeometry x="745.92" y="990" width="100" height="40" as="geometry" />
        </mxCell>
        <mxCell id="I1TmpIELdwfT0sR5nAJM-144" value="Delete Customer" style="ellipse;whiteSpace=wrap;html=1;align=center;" vertex="1" parent="1">
          <mxGeometry x="745.92" y="1050" width="100" height="40" as="geometry" />
        </mxCell>
        <mxCell id="I1TmpIELdwfT0sR5nAJM-145" value="" style="endArrow=open;endFill=1;endSize=12;html=1;rounded=0;entryX=0;entryY=0.5;entryDx=0;entryDy=0;" edge="1" parent="1" source="I1TmpIELdwfT0sR5nAJM-84" target="I1TmpIELdwfT0sR5nAJM-88">
          <mxGeometry width="160" relative="1" as="geometry">
            <mxPoint x="600" y="730" as="sourcePoint" />
            <mxPoint x="809" y="792" as="targetPoint" />
          </mxGeometry>
        </mxCell>
        <mxCell id="I1TmpIELdwfT0sR5nAJM-146" value="" style="endArrow=open;endFill=1;endSize=12;html=1;rounded=0;entryX=0.021;entryY=0.765;entryDx=0;entryDy=0;entryPerimeter=0;" edge="1" parent="1" source="I1TmpIELdwfT0sR5nAJM-84" target="I1TmpIELdwfT0sR5nAJM-89">
          <mxGeometry width="160" relative="1" as="geometry">
            <mxPoint x="580" y="810" as="sourcePoint" />
            <mxPoint x="869" y="862" as="targetPoint" />
          </mxGeometry>
        </mxCell>
        <mxCell id="I1TmpIELdwfT0sR5nAJM-147" value="" style="endArrow=open;endFill=1;endSize=12;html=1;rounded=0;entryX=0;entryY=0.5;entryDx=0;entryDy=0;exitX=0.901;exitY=0.195;exitDx=0;exitDy=0;exitPerimeter=0;" edge="1" parent="1" source="I1TmpIELdwfT0sR5nAJM-84" target="I1TmpIELdwfT0sR5nAJM-138">
          <mxGeometry width="160" relative="1" as="geometry">
            <mxPoint x="650" y="850" as="sourcePoint" />
            <mxPoint x="859" y="912" as="targetPoint" />
          </mxGeometry>
        </mxCell>
        <mxCell id="I1TmpIELdwfT0sR5nAJM-148" value="" style="endArrow=open;endFill=1;endSize=12;html=1;rounded=0;entryX=0;entryY=0.5;entryDx=0;entryDy=0;exitX=1;exitY=0.5;exitDx=0;exitDy=0;" edge="1" parent="1" source="I1TmpIELdwfT0sR5nAJM-84" target="I1TmpIELdwfT0sR5nAJM-139">
          <mxGeometry width="160" relative="1" as="geometry">
            <mxPoint x="620" y="860" as="sourcePoint" />
            <mxPoint x="829" y="922" as="targetPoint" />
          </mxGeometry>
        </mxCell>
        <mxCell id="I1TmpIELdwfT0sR5nAJM-149" value="" style="endArrow=open;endFill=1;endSize=12;html=1;rounded=0;exitX=0.925;exitY=0.815;exitDx=0;exitDy=0;exitPerimeter=0;entryX=0;entryY=0.5;entryDx=0;entryDy=0;" edge="1" parent="1" source="I1TmpIELdwfT0sR5nAJM-84" target="I1TmpIELdwfT0sR5nAJM-140">
          <mxGeometry width="160" relative="1" as="geometry">
            <mxPoint x="620" y="890" as="sourcePoint" />
            <mxPoint x="760" y="920" as="targetPoint" />
          </mxGeometry>
        </mxCell>
        <mxCell id="I1TmpIELdwfT0sR5nAJM-151" value="Generate Receipt" style="ellipse;whiteSpace=wrap;html=1;align=center;" vertex="1" parent="1">
          <mxGeometry x="410" y="960" width="170" height="40" as="geometry" />
        </mxCell>
        <mxCell id="I1TmpIELdwfT0sR5nAJM-152" value="" style="endArrow=open;endFill=1;endSize=12;html=1;rounded=0;entryX=0;entryY=0.5;entryDx=0;entryDy=0;exitX=0.934;exitY=0.215;exitDx=0;exitDy=0;exitPerimeter=0;" edge="1" parent="1" source="I1TmpIELdwfT0sR5nAJM-151" target="I1TmpIELdwfT0sR5nAJM-141">
          <mxGeometry width="160" relative="1" as="geometry">
            <mxPoint x="630" y="920" as="sourcePoint" />
            <mxPoint x="804" y="791" as="targetPoint" />
          </mxGeometry>
        </mxCell>
        <mxCell id="I1TmpIELdwfT0sR5nAJM-153" value="" style="endArrow=open;endFill=1;endSize=12;html=1;rounded=0;entryX=0;entryY=0.5;entryDx=0;entryDy=0;exitX=1;exitY=0.5;exitDx=0;exitDy=0;" edge="1" parent="1" source="I1TmpIELdwfT0sR5nAJM-151" target="I1TmpIELdwfT0sR5nAJM-142">
          <mxGeometry width="160" relative="1" as="geometry">
            <mxPoint x="690" y="960" as="sourcePoint" />
            <mxPoint x="864" y="831" as="targetPoint" />
          </mxGeometry>
        </mxCell>
        <mxCell id="I1TmpIELdwfT0sR5nAJM-154" value="" style="endArrow=open;endFill=1;endSize=12;html=1;rounded=0;entryX=0;entryY=0.5;entryDx=0;entryDy=0;exitX=1;exitY=0.5;exitDx=0;exitDy=0;" edge="1" parent="1" source="I1TmpIELdwfT0sR5nAJM-151" target="I1TmpIELdwfT0sR5nAJM-143">
          <mxGeometry width="160" relative="1" as="geometry">
            <mxPoint x="640" y="990" as="sourcePoint" />
            <mxPoint x="814" y="861" as="targetPoint" />
          </mxGeometry>
        </mxCell>
        <mxCell id="I1TmpIELdwfT0sR5nAJM-155" value="" style="endArrow=open;endFill=1;endSize=12;html=1;rounded=0;exitX=0.972;exitY=0.775;exitDx=0;exitDy=0;exitPerimeter=0;" edge="1" parent="1" source="I1TmpIELdwfT0sR5nAJM-151" target="I1TmpIELdwfT0sR5nAJM-144">
          <mxGeometry width="160" relative="1" as="geometry">
            <mxPoint x="600" y="1000" as="sourcePoint" />
            <mxPoint x="774" y="871" as="targetPoint" />
          </mxGeometry>
        </mxCell>
        <mxCell id="I1TmpIELdwfT0sR5nAJM-156" value="" style="strokeWidth=2;html=1;shape=mxgraph.flowchart.delay;whiteSpace=wrap;rotation=-90;" vertex="1" parent="1">
          <mxGeometry x="23.099999999999998" y="960" width="80.63" height="40" as="geometry" />
        </mxCell>
        <mxCell id="I1TmpIELdwfT0sR5nAJM-157" value="" style="verticalLabelPosition=bottom;verticalAlign=top;html=1;shape=mxgraph.basic.smiley" vertex="1" parent="1">
          <mxGeometry x="43.41" y="910" width="40" height="40" as="geometry" />
        </mxCell>
        <mxCell id="I1TmpIELdwfT0sR5nAJM-158" style="edgeStyle=orthogonalEdgeStyle;rounded=0;orthogonalLoop=1;jettySize=auto;html=1;exitX=0.5;exitY=1;exitDx=0;exitDy=0;" edge="1" parent="1">
          <mxGeometry relative="1" as="geometry">
            <mxPoint x="60.33" y="1110" as="sourcePoint" />
            <mxPoint x="60.33" y="1110" as="targetPoint" />
          </mxGeometry>
        </mxCell>
        <mxCell id="I1TmpIELdwfT0sR5nAJM-159" value="" style="strokeWidth=2;html=1;shape=mxgraph.flowchart.terminator;whiteSpace=wrap;rotation=75;" vertex="1" parent="1">
          <mxGeometry x="50" y="1030" width="71.83" height="14.28" as="geometry" />
        </mxCell>
        <mxCell id="I1TmpIELdwfT0sR5nAJM-160" value="" style="strokeWidth=2;html=1;shape=mxgraph.flowchart.terminator;whiteSpace=wrap;rotation=105;" vertex="1" parent="1">
          <mxGeometry x="9.047196404560879" y="1029.9991940332038" width="71.83" height="14.28" as="geometry" />
        </mxCell>
        <mxCell id="I1TmpIELdwfT0sR5nAJM-161" value="Owner" style="rounded=1;arcSize=10;whiteSpace=wrap;html=1;align=center;" vertex="1" parent="1">
          <mxGeometry x="13.410000000000009" y="990" width="100" height="40" as="geometry" />
        </mxCell>
        <mxCell id="I1TmpIELdwfT0sR5nAJM-162" value="" style="verticalLabelPosition=bottom;verticalAlign=top;html=1;strokeWidth=2;shape=mxgraph.arrows2.arrow;dy=0.6;dx=40;notch=0;rotation=0;" vertex="1" parent="1">
          <mxGeometry x="103.73" y="966.64" width="302.81" height="26.73" as="geometry" />
        </mxCell>
        <mxCell id="I1TmpIELdwfT0sR5nAJM-163" value="Generate Reports" style="rounded=1;arcSize=10;whiteSpace=wrap;html=1;align=center;rotation=0;" vertex="1" parent="1">
          <mxGeometry x="183.14532105589734" y="961.9456676062651" width="113.7" height="18.05" as="geometry" />
        </mxCell>
      </root>
    </mxGraphModel>
  </diagram>
</mxfile>
